<?xml version="1.0" encoding="UTF-8" standalone="no"?>
<!DOCTYPE svg PUBLIC "-//W3C//DTD SVG 1.1//EN" "http://www.w3.org/Graphics/SVG/1.1/DTD/svg11.dtd">
<svg xmlns="http://www.w3.org/2000/svg" version="1.1" viewBox="0.00 0.00 498.00 352.00">
<g stroke-width="2.00" fill="none" stroke-linecap="butt">
<path stroke="#e4aac6" vector-effect="non-scaling-stroke" d="
  M 257.89 68.28
  C 273.33 68.70 289.08 72.41 303.37 79.19
  Q 305.32 80.11 307.53 79.89
  Q 315.20 79.10 321.95 78.66
  Q 325.29 78.44 322.01 77.75
  L 242.27 60.88
  Q 239.67 60.33 242.06 61.47
  Q 248.96 64.76 255.97 67.85
  Q 256.90 68.26 257.89 68.28"
/>
<path stroke="#c3acd0" vector-effect="non-scaling-stroke" d="
  M 255.42 71.92
  C 263.79 76.01 272.56 79.77 280.62 83.59
  Q 282.57 84.51 285.08 84.29
  Q 292.42 83.62 299.68 83.08
  Q 302.43 82.88 299.93 81.71
  Q 279.09 71.99 255.67 70.93
  Q 253.14 70.81 255.42 71.92"
/>
<path stroke="#f2a8b4" vector-effect="non-scaling-stroke" d="
  M 181.99 84.31
  A 0.50 0.50 0.0 0 0 182.18 83.83
  L 180.54 73.53
  A 0.50 0.50 0.0 0 0 179.68 73.27
  L 161.65 92.91
  A 0.50 0.50 0.0 0 0 161.88 93.73
  L 167.05 95.26
  A 0.50 0.50 0.0 0 0 167.49 95.18
  L 181.99 84.31"
/>
<path stroke="#c3acd0" vector-effect="non-scaling-stroke" d="
  M 219.39 79.52
  L 211.41 82.37"
/>
<path stroke="#e4aac6" vector-effect="non-scaling-stroke" d="
  M 211.41 82.37
  L 208.03 83.87"
/>
<path stroke="#f2a8b4" vector-effect="non-scaling-stroke" d="
  M 208.03 83.87
  L 197.70 89.41
  Q 196.89 89.84 197.04 90.75
  L 199.44 105.14
  A 0.29 0.29 0.0 0 1 199.08 105.47
  L 183.06 100.91
  A 1.58 1.56 -57.7 0 0 181.58 101.25
  Q 170.78 110.93 162.99 122.49
  A 1.03 1.02 -59.2 0 0 163.36 123.97
  L 170.86 127.83"
/>
<path stroke="#fbbda1" vector-effect="non-scaling-stroke" d="
  M 170.86 127.83
  Q 160.84 138.43 150.76 148.77
  Q 149.45 150.12 148.69 152.75
  Q 146.13 161.63 145.15 169.06"
/>
<path stroke="#ffd5a7" vector-effect="non-scaling-stroke" d="
  M 145.15 169.06
  L 139.27 169.05
  A 1.16 1.15 -88.1 0 0 138.12 170.14
  L 137.74 175.90
  Q 137.68 176.87 138.63 176.69
  L 149.72 174.60
  A 1.02 1.01 82.4 0 0 150.54 173.52
  L 150.33 171.14
  Q 150.27 170.44 150.98 170.43
  L 152.73 170.42"
/>
<path stroke="#fbbda1" vector-effect="non-scaling-stroke" d="
  M 152.73 170.42
  L 155.82 170.20
  Q 156.71 170.14 156.74 171.03
  L 156.87 174.95
  Q 156.90 175.82 156.04 175.97
  L 144.79 177.91
  A 0.93 0.93 0.0 0 0 144.01 178.83
  L 144.07 184.59"
/>
<path stroke="#ffd5a7" vector-effect="non-scaling-stroke" d="
  M 144.07 184.59
  Q 143.78 192.91 145.50 201.78"
/>
<path stroke="#ffe9b9" vector-effect="non-scaling-stroke" d="
  M 145.50 201.78
  L 147.65 212.96
  A 1.30 1.30 0.0 0 0 148.89 214.02
  L 157.82 214.27
  A 1.12 1.11 72.9 0 1 158.68 214.73
  Q 159.31 215.58 160.15 217.07
  Q 166.77 228.77 170.68 239.82"
/>
<path stroke="#ffd5a7" vector-effect="non-scaling-stroke" d="
  M 170.68 239.82
  L 158.86 217.51
  A 1.29 1.28 -13.1 0 0 157.76 216.83
  L 148.44 216.64
  A 0.60 0.59 -6.9 0 0 147.85 217.39
  Q 154.14 240.20 169.30 258.66"
/>
<path stroke="#ffe9b9" vector-effect="non-scaling-stroke" d="
  M 169.30 258.66
  Q 169.66 259.72 170.50 259.67
  Q 170.96 259.64 171.04 259.18
  Q 171.09 258.90 171.24 258.76
  Q 171.62 258.39 171.98 258.79
  Q 178.41 266.00 185.76 271.68"
/>
<path stroke="#fbbda1" vector-effect="non-scaling-stroke" d="
  M 185.76 271.68
  Q 193.84 278.28 204.53 283.89
  C 206.26 284.79 207.36 285.76 209.33 285.13
  Q 218.32 282.25 226.41 279.87
  A 3.86 3.84 -44.3 0 1 228.68 279.89
  Q 235.22 281.96 242.12 283.83
  C 244.79 284.56 246.45 286.67 247.71 288.95
  Q 248.14 289.71 247.40 289.24
  C 246.60 288.74 245.90 288.29 244.98 288.01
  Q 238.01 285.88 231.07 283.86
  A 3.87 3.83 44.4 0 0 228.88 283.87
  L 211.04 289.31
  Q 210.10 289.60 210.99 290.03
  Q 226.28 297.25 243.77 299.52
  A 1.11 1.11 0.0 0 0 244.61 299.28
  L 248.14 296.41
  Q 248.57 296.06 249.11 296.08
  L 252.74 296.17"
/>
<path stroke="#f8a9c3" vector-effect="non-scaling-stroke" d="
  M 252.74 296.17
  Q 263.58 296.46 274.09 294.64
  Q 275.60 294.37 274.66 295.58
  Q 274.31 296.03 274.04 296.48
  Q 273.02 298.23 274.81 297.28
  Q 277.65 295.77 278.65 297.31"
/>
<path stroke="#f2a8b4" vector-effect="non-scaling-stroke" d="
  M 278.65 297.31
  Q 276.58 298.91 276.46 300.43
  Q 276.42 300.95 276.94 300.84
  L 318.44 291.23
  Q 319.83 290.91 318.58 290.24
  L 310.33 285.80
  A 2.41 2.39 45.3 0 0 308.09 285.78
  Q 297.99 291.05 286.72 294.54"
/>
<path stroke="#f8a9c3" vector-effect="non-scaling-stroke" d="
  M 286.72 294.54
  Q 286.06 294.32 285.16 294.71
  Q 285.13 294.72 285.13 294.70
  Q 285.12 294.68 285.12 294.65
  Q 285.10 294.57 285.17 294.54
  Q 292.72 291.66 299.74 288.39
  Q 301.53 287.56 303.05 286.49
  A 0.55 0.55 0.0 0 0 302.95 285.53
  Q 299.51 284.09 296.42 282.03
  A 1.80 1.77 -39.5 0 0 294.70 281.88
  L 283.71 286.67
  A 0.27 0.27 0.0 0 1 283.34 286.37
  L 283.48 285.65
  A 0.30 0.29 84.5 0 1 283.66 285.43
  L 299.96 278.10
  Q 300.47 277.87 300.94 278.17
  Q 303.91 280.06 307.10 281.67
  Q 309.05 282.65 310.88 281.57
  Q 330.39 270.11 343.17 253.46
  Q 343.78 252.65 344.16 253.59
  L 344.65 254.82
  Q 345.29 256.40 346.25 254.99
  L 351.32 247.50
  A 0.53 0.53 0.0 0 0 350.81 246.67
  C 349.20 246.91 347.70 246.62 346.49 245.46
  Q 343.99 243.07 341.26 240.86
  C 340.02 239.86 339.02 238.03 338.37 236.59
  Q 337.01 233.53 339.70 235.52
  Q 342.13 237.30 344.91 240.01
  Q 346.85 241.89 348.39 242.15
  Q 351.05 242.60 352.47 239.91
  Q 354.11 236.80 355.49 233.83"
/>
<path stroke="#e4aac6" vector-effect="non-scaling-stroke" d="
  M 355.49 233.83
  L 362.01 218.26"
/>
<path stroke="#c3acd0" vector-effect="non-scaling-stroke" d="
  M 362.01 218.26
  Q 362.82 217.44 363.00 216.75
  Q 371.89 183.45 360.88 151.00
  A 0.34 0.34 0.0 0 0 360.26 150.95
  L 348.29 173.73"
/>
<path stroke="#e4aac6" vector-effect="non-scaling-stroke" d="
  M 348.29 173.73
  Q 347.59 172.74 348.22 171.48
  Q 353.33 161.24 358.45 151.01
  C 359.36 149.20 360.79 148.55 359.96 146.17
  Q 358.68 142.50 356.75 138.48"
/>
<path stroke="#d4abcb" vector-effect="non-scaling-stroke" d="
  M 356.75 138.48
  L 355.85 136.43
  Q 355.62 135.91 355.99 135.48
  C 356.61 134.76 356.73 133.98 356.27 133.12
  Q 354.39 129.61 352.44 126.11
  Q 352.37 125.98 352.37 125.83
  Q 352.38 125.64 352.46 125.47"
/>
<path stroke="#c3acd0" vector-effect="non-scaling-stroke" d="
  M 352.46 125.47
  L 354.47 122.40
  Q 354.82 121.86 354.43 121.34
  L 349.77 115.20
  A 0.72 0.72 0.0 0 0 348.76 115.07
  Q 347.71 115.89 347.40 117.18
  A 1.38 1.36 -53.6 0 0 347.54 118.16
  L 351.75 125.57"
/>
<path stroke="#d4abcb" vector-effect="non-scaling-stroke" d="
  M 351.75 125.57
  Q 352.36 125.81 352.06 126.22
  Q 348.19 131.57 344.83 136.76
  A 1.66 1.66 0.0 0 0 344.67 138.24
  C 346.14 142.17 346.29 145.69 344.64 149.74
  A 0.64 0.62 -78.9 0 1 344.08 150.13
  L 343.79 150.15
  Q 343.50 150.16 343.55 149.87
  Q 343.95 147.53 344.21 145.10
  C 344.45 142.80 343.54 140.76 343.01 138.56
  A 1.29 1.28 -35.0 0 1 343.20 137.52
  L 349.88 127.65
  Q 350.14 127.27 350.11 126.80
  Q 350.00 124.94 348.81 123.99"
/>
<path stroke="#c3acd0" vector-effect="non-scaling-stroke" d="
  M 348.81 123.99
  L 341.09 113.57"
/>
<path stroke="#b5b0d4" vector-effect="non-scaling-stroke" d="
  M 341.09 113.57
  Q 326.31 95.74 306.44 85.72
  C 305.40 85.19 304.52 85.18 303.40 85.26
  Q 295.56 85.83 287.31 86.54
  A 5.05 5.01 -34.7 0 1 284.72 86.08
  Q 272.52 80.37 259.09 74.28
  C 257.56 73.59 255.90 73.37 254.26 73.35
  Q 237.25 73.18 219.39 79.52"
/>
<path stroke="#795da4" vector-effect="non-scaling-stroke" d="
  M 341.09 113.57
  Q 333.26 112.30 326.20 110.02
  Q 325.70 109.86 325.34 109.51
  Q 324.98 109.17 324.50 109.15
  Q 320.46 108.95 317.07 107.03
  Q 316.63 106.77 316.12 106.83
  L 313.21 107.17
  A 1.18 1.17 67.5 0 1 312.14 106.72
  Q 310.30 104.39 307.86 104.64
  Q 307.26 104.70 306.83 104.28
  Q 306.34 103.80 305.70 104.03
  Q 304.99 104.30 304.29 104.00
  Q 299.39 101.93 295.22 100.83
  Q 287.37 98.76 279.34 96.72
  C 276.03 95.88 272.84 94.69 269.52 93.84
  Q 265.79 92.88 262.05 91.79
  Q 241.45 85.78 219.39 79.52"
/>
<path stroke="#98589c" vector-effect="non-scaling-stroke" d="
  M 348.81 123.99
  L 316.78 126.04"
/>
<path stroke="#c3acd0" vector-effect="non-scaling-stroke" d="
  M 316.78 126.04
  Q 310.73 120.46 308.95 119.06
  Q 274.86 92.38 232.43 103.29"
/>
<path stroke="#a85796" vector-effect="non-scaling-stroke" d="
  M 232.43 103.29
  L 211.41 82.37"
/>
<path stroke="#b95692" vector-effect="non-scaling-stroke" d="
  M 356.75 138.48
  L 337.36 162.87"
/>
<path stroke="#d4abcb" vector-effect="non-scaling-stroke" d="
  M 316.78 126.04
  Q 322.09 132.27 324.16 135.09
  Q 332.74 146.81 337.36 162.87"
/>
<path stroke="#e4aac6" vector-effect="non-scaling-stroke" d="
  M 337.36 162.87
  Q 343.06 185.42 336.58 208.88"
/>
<path stroke="#f8a9c3" vector-effect="non-scaling-stroke" d="
  M 336.58 208.88
  Q 325.53 242.69 295.40 258.90
  Q 274.54 270.12 249.66 268.54"
/>
<path stroke="#fbbda1" vector-effect="non-scaling-stroke" d="
  M 249.66 268.54
  Q 228.13 266.68 210.33 255.58"
/>
<path stroke="#ffe9b9" vector-effect="non-scaling-stroke" d="
  M 210.33 255.58
  C 193.31 243.98 180.91 227.99 175.04 208.58"
/>
<path stroke="#ffd5a7" vector-effect="non-scaling-stroke" d="
  M 175.04 208.58
  Q 170.58 194.34 171.62 178.55"
/>
<path stroke="#fbbda1" vector-effect="non-scaling-stroke" d="
  M 171.62 178.55
  Q 173.18 156.00 186.67 136.16"
/>
<path stroke="#e4aac6" vector-effect="non-scaling-stroke" d="
  M 232.43 103.29
  L 217.89 109.08"
/>
<path stroke="#d7537b" vector-effect="non-scaling-stroke" d="
  M 217.89 109.08
  L 208.03 83.87"
/>
<path stroke="#a85796" vector-effect="non-scaling-stroke" d="
  M 348.29 173.73
  Q 347.70 175.19 348.21 178.26
  Q 349.72 187.22 351.36 196.20
  Q 351.97 199.49 353.55 202.42
  Q 356.46 207.83 359.38 213.21
  Q 360.67 215.59 362.01 218.26"
/>
<path stroke="#dd5489" vector-effect="non-scaling-stroke" d="
  M 355.49 233.83
  Q 353.41 229.39 351.73 227.85
  C 348.23 224.63 345.07 219.62 343.05 217.10
  Q 339.85 213.12 336.58 208.88"
/>
<path stroke="#98589c" vector-effect="non-scaling-stroke" d="
  M 352.46 125.47
  Q 352.12 125.43 351.75 125.57"
/>
<path stroke="#f2a8b4" vector-effect="non-scaling-stroke" d="
  M 217.89 109.08
  Q 198.29 119.37 186.67 136.16"
/>
<path stroke="#ee6656" vector-effect="non-scaling-stroke" d="
  M 186.67 136.16
  L 170.86 127.83"
/>
<path stroke="#eb5278" vector-effect="non-scaling-stroke" d="
  M 286.72 294.54
  L 278.65 297.31"
/>
<path stroke="#f46764" vector-effect="non-scaling-stroke" d="
  M 252.74 296.17
  L 249.66 268.54"
/>
<path stroke="#fa9349" vector-effect="non-scaling-stroke" d="
  M 171.62 178.55
  L 144.07 184.59"
/>
<path stroke="#fa9349" vector-effect="non-scaling-stroke" d="
  M 152.73 170.42
  L 151.08 170.27
  Q 150.59 170.22 150.26 169.85
  Q 148.95 168.36 145.15 169.06"
/>
<path stroke="#fba75b" vector-effect="non-scaling-stroke" d="
  M 210.33 255.58
  L 185.76 271.68"
/>
<path stroke="#ffbf61" vector-effect="non-scaling-stroke" d="
  M 169.30 258.66
  Q 170.88 259.08 170.36 256.39
  Q 170.09 255.01 170.12 254.08
  Q 170.35 247.18 170.68 239.82"
/>
<path stroke="#ffbf61" vector-effect="non-scaling-stroke" d="
  M 175.04 208.58
  Q 175.19 209.94 173.76 209.47
  Q 161.15 205.33 148.48 201.32
  Q 146.68 200.76 145.50 201.78"
/>
<path stroke="#fbbda1" vector-effect="non-scaling-stroke" d="
  M 194.59 101.74
  A 0.70 0.70 0.0 0 0 195.47 100.95
  L 192.97 86.77
  A 0.70 0.70 0.0 0 0 191.87 86.32
  L 178.66 95.96
  A 0.70 0.70 0.0 0 0 178.87 97.20
  L 194.59 101.74"
/>
<path stroke="#e4aac6" vector-effect="non-scaling-stroke" d="
  M 148.58 100.30
  A 0.35 0.35 0.0 0 0 148.47 99.85
  L 136.04 90.97
  A 0.35 0.35 0.0 0 0 135.48 91.23
  L 133.30 128.34
  A 0.35 0.35 0.0 0 0 133.96 128.52
  L 148.58 100.30"
/>
<path stroke="#f2a8b4" vector-effect="non-scaling-stroke" d="
  M 102.08 134.82
  A 0.41 0.41 0.0 0 0 102.47 135.41
  L 114.92 134.81
  A 0.41 0.41 0.0 0 0 115.31 134.33
  L 112.05 116.38
  A 0.41 0.41 0.0 0 0 111.28 116.27
  L 102.08 134.82"
/>
<path stroke="#fbbda1" vector-effect="non-scaling-stroke" d="
  M 157.41 125.75
  C 152.36 133.60 148.22 142.06 145.12 150.88
  Q 144.42 152.86 145.88 151.35
  L 166.32 130.20
  Q 166.44 130.08 166.31 129.97
  Q 165.04 128.93 157.80 125.63
  A 0.32 0.31 -61.0 0 0 157.41 125.75"
/>
<path stroke="#f2a8b4" vector-effect="non-scaling-stroke" d="
  M 128.37 147.20
  A 0.31 0.31 0.0 0 0 128.44 147.14
  L 135.60 139.53
  A 0.31 0.31 0.0 0 0 135.23 139.05
  L 110.46 152.27
  A 0.31 0.31 0.0 0 0 110.51 152.84
  L 114.94 154.33
  A 0.31 0.31 0.0 0 0 115.19 154.31
  L 128.37 147.20"
/>
<path stroke="#b5b0d4" vector-effect="non-scaling-stroke" d="
  M 364.47 149.06
  C 371.91 169.84 372.20 193.56 366.22 214.82
  C 366.01 215.56 366.11 216.53 366.46 217.20
  Q 371.97 227.50 377.55 238.00
  Q 378.55 239.88 378.34 237.76
  L 368.88 140.02
  Q 368.71 138.24 367.87 139.82
  L 364.71 145.75
  Q 363.86 147.35 364.47 149.06"
/>
<path stroke="#ffe9b9" vector-effect="non-scaling-stroke" d="
  M 90.47 166.99
  Q 82.13 164.49 79.50 164.27
  Q 62.78 162.85 46.39 161.53
  A 0.50 0.50 0.0 0 0 45.94 162.32
  L 53.00 172.56
  A 2.48 2.46 -17.4 0 0 55.05 173.62
  Q 73.33 173.39 92.00 173.25
  Q 94.42 173.23 95.49 173.86"
/>
<path stroke="#ffd5a7" vector-effect="non-scaling-stroke" d="
  M 95.49 173.86
  Q 100.97 181.53 105.70 187.30
  Q 107.25 189.20 106.33 186.92
  L 100.85 173.41"
/>
<path stroke="#ffe9b9" vector-effect="non-scaling-stroke" d="
  M 100.85 173.41
  L 110.00 173.05
  Q 110.21 173.05 110.31 172.87
  Q 110.40 172.73 110.32 172.61
  Q 110.17 172.36 109.89 172.31
  Q 103.18 171.05 98.17 167.94"
/>
<path stroke="#ffd5a7" vector-effect="non-scaling-stroke" d="
  M 98.17 167.94
  L 92.68 154.79
  A 1.03 1.03 0.0 0 0 91.69 154.17
  L 82.74 154.67
  A 0.49 0.49 0.0 0 0 82.37 155.44
  L 90.47 166.99"
/>
<path stroke="#ffbf61" vector-effect="non-scaling-stroke" d="
  M 98.17 167.94
  Q 95.11 169.09 90.47 166.99"
/>
<path stroke="#ffbf61" vector-effect="non-scaling-stroke" d="
  M 100.85 173.41
  Q 97.11 172.12 95.49 173.86"
/>
<path stroke="#fbbda1" vector-effect="non-scaling-stroke" d="
  M 129.85 178.33
  A 0.83 0.83 0.0 0 0 130.84 179.30
  L 133.51 178.74
  A 0.83 0.83 0.0 0 0 134.17 178.00
  L 134.77 171.82
  A 0.83 0.83 0.0 0 0 133.87 170.92
  L 131.85 171.10
  A 0.83 0.83 0.0 0 0 131.10 171.77
  L 129.85 178.33"
/>
<path stroke="#fbbda1" vector-effect="non-scaling-stroke" d="
  M 128.33 190.45
  A 0.70 0.70 0.0 0 0 127.91 189.67
  L 122.16 187.25
  A 0.70 0.70 0.0 0 0 121.21 187.72
  L 116.81 204.77
  A 0.70 0.70 0.0 0 0 117.39 205.64
  L 124.45 206.66
  A 0.70 0.70 0.0 0 0 125.24 206.11
  L 128.33 190.45"
/>
<path stroke="#f2a8b4" vector-effect="non-scaling-stroke" d="
  M 52.26 200.14
  A 0.34 0.34 0.0 0 0 52.40 199.57
  L 44.89 192.16
  A 0.34 0.34 0.0 0 0 44.33 192.31
  L 41.38 202.81
  A 0.34 0.34 0.0 0 0 41.80 203.23
  L 52.26 200.14"
/>
<path stroke="#ffd5a7" vector-effect="non-scaling-stroke" d="
  M 67.74 212.35
  A 0.47 0.47 0.0 0 0 67.61 212.68
  L 67.89 223.11
  A 0.47 0.47 0.0 0 0 68.71 223.41
  L 87.46 201.84
  A 0.47 0.47 0.0 0 0 87.48 201.24
  L 83.36 196.03
  A 0.47 0.47 0.0 0 0 82.65 196.01
  L 67.74 212.35"
/>
<path stroke="#fbbda1" vector-effect="non-scaling-stroke" d="
  M 162.38 255.29
  C 152.42 243.51 145.32 229.74 141.24 214.80
  A 0.99 0.98 83.2 0 0 140.32 214.07
  Q 135.98 213.97 131.89 213.80
  Q 129.29 213.69 126.49 214.92
  Q 121.27 217.23 116.64 219.00
  A 0.62 0.62 0.0 0 0 116.45 220.03
  L 164.14 263.66
  Q 165.22 264.64 165.03 263.19
  C 164.66 260.36 164.32 257.58 162.38 255.29"
/>
<path stroke="#fbbda1" vector-effect="non-scaling-stroke" d="
  M 118.82 247.19
  A 0.81 0.81 0.0 0 0 119.70 246.12
  L 114.87 232.39
  A 0.81 0.81 0.0 0 0 113.54 232.08
  L 101.89 243.37
  A 0.81 0.81 0.0 0 0 102.33 244.75
  L 118.82 247.19"
/>
<path stroke="#ffd5a7" vector-effect="non-scaling-stroke" d="
  M 123.55 271.70
  L 153.17 269.88
  Q 153.26 269.87 153.30 269.78
  Q 153.36 269.65 153.37 269.53
  Q 153.39 269.23 153.10 269.19
  L 127.54 265.08"
/>
<path stroke="#ffe9b9" vector-effect="non-scaling-stroke" d="
  M 127.54 265.08
  Q 133.74 254.90 140.11 244.77
  Q 140.30 244.46 140.04 244.27
  Q 139.71 244.04 139.41 244.31
  Q 132.37 250.73 125.47 256.79
  Q 121.62 260.16 118.45 264.52
  Q 112.71 272.42 105.93 280.89
  Q 104.73 282.39 106.65 282.30
  L 115.22 281.86
  Q 117.17 281.76 118.21 280.12
  L 123.55 271.70"
/>
<path stroke="#ffbf61" vector-effect="non-scaling-stroke" d="
  M 127.54 265.08
  Q 124.94 268.01 123.55 271.70"
/>
<path stroke="#f8a9c3" vector-effect="non-scaling-stroke" d="
  M 362.79 249.40
  A 0.33 0.33 0.0 0 0 362.56 248.87
  L 354.44 248.21
  A 0.33 0.33 0.0 0 0 354.14 248.35
  L 348.06 257.45
  A 0.33 0.33 0.0 0 0 348.03 257.77
  L 350.91 264.19
  A 0.33 0.33 0.0 0 0 351.48 264.26
  L 362.79 249.40"
/>
<path stroke="#f2a8b4" vector-effect="non-scaling-stroke" d="
  M 179.43 280.03
  A 0.34 0.34 0.0 0 0 179.40 279.36
  L 169.09 278.10
  A 0.34 0.34 0.0 0 0 168.98 278.10
  L 154.67 281.06
  A 0.34 0.34 0.0 0 0 154.45 281.22
  L 152.06 285.14
  A 0.34 0.34 0.0 0 0 152.42 285.65
  L 179.43 280.03"
/>
<path stroke="#fbbda1" vector-effect="non-scaling-stroke" d="
  M 176.65 291.79
  L 208.33 307.66
  A 0.94 0.93 38.9 0 0 209.32 307.56
  L 221.84 297.61
  Q 222.65 296.97 221.63 296.83
  Q 204.95 294.53 190.18 287.75
  Q 188.55 287.00 186.82 287.56
  Q 181.72 289.21 176.77 290.60
  Q 175.17 291.05 176.65 291.79"
/>
<path stroke="#d4abcb" vector-effect="non-scaling-stroke" d="
  M 260.07 145.62
  L 268.24 159.58"
/>
<path stroke="#f8a9c3" vector-effect="non-scaling-stroke" d="
  M 268.24 159.58
  L 280.13 180.69
  A 0.56 0.56 0.0 0 0 281.11 180.69
  L 283.59 176.18"
/>
<path stroke="#d4abcb" vector-effect="non-scaling-stroke" d="
  M 283.59 176.18
  L 301.45 144.88"
/>
<path stroke="#c3acd0" vector-effect="non-scaling-stroke" d="
  M 301.45 144.88
  Q 302.46 143.80 303.16 141.72
  Q 303.34 141.20 302.96 140.80
  C 288.36 125.29 268.44 118.65 247.01 121.19
  A 0.59 0.58 71.7 0 0 246.58 122.06
  L 260.07 145.62"
/>
<path stroke="#98589c" vector-effect="non-scaling-stroke" d="
  M 301.45 144.88
  L 260.07 145.62"
/>
<path stroke="#cd558f" vector-effect="non-scaling-stroke" d="
  M 283.59 176.18
  L 268.24 159.58"
/>
<path stroke="#e4aac6" vector-effect="non-scaling-stroke" d="
  M 235.05 124.21
  L 226.47 127.93"
/>
<path stroke="#f2a8b4" vector-effect="non-scaling-stroke" d="
  M 226.47 127.93
  Q 213.19 135.00 204.37 147.15"
/>
<path stroke="#fbbda1" vector-effect="non-scaling-stroke" d="
  M 204.37 147.15
  Q 200.15 152.80 196.74 161.03
  A 0.65 0.65 0.0 0 0 197.34 161.93
  L 228.81 161.84"
/>
<path stroke="#f2a8b4" vector-effect="non-scaling-stroke" d="
  M 228.81 161.84
  L 238.72 161.82"
/>
<path stroke="#e4aac6" vector-effect="non-scaling-stroke" d="
  M 238.72 161.82
  L 246.25 161.82"
/>
<path stroke="#f8a9c3" vector-effect="non-scaling-stroke" d="
  M 246.25 161.82
  L 265.35 161.86
  A 0.42 0.42 0.0 0 0 265.72 161.24
  L 256.92 145.75"
/>
<path stroke="#c3acd0" vector-effect="non-scaling-stroke" d="
  M 256.92 145.75
  L 243.46 122.38
  A 0.78 0.77 -22.7 0 0 242.57 122.02
  L 235.05 124.21"
/>
<path stroke="#bc5693" vector-effect="non-scaling-stroke" d="
  M 256.92 145.75
  Q 256.83 146.28 256.48 146.51
  Q 256.27 146.65 255.98 146.56
  Q 255.67 146.47 255.53 146.27"
/>
<path stroke="#a85796" vector-effect="non-scaling-stroke" d="
  M 255.53 146.27
  L 235.05 124.21"
/>
<path stroke="#dd5489" vector-effect="non-scaling-stroke" d="
  M 255.53 146.27
  Q 250.04 153.38 246.25 161.82"
/>
<path stroke="#d7537b" vector-effect="non-scaling-stroke" d="
  M 238.72 161.82
  Q 233.38 144.33 226.47 127.93"
/>
<path stroke="#ee6656" vector-effect="non-scaling-stroke" d="
  M 228.81 161.84
  Q 228.01 160.70 226.59 159.91
  Q 217.91 155.12 204.37 147.15"
/>
<path stroke="#f8a9c3" vector-effect="non-scaling-stroke" d="
  M 285.93 177.88
  L 271.31 203.48
  Q 270.89 204.23 271.74 204.22
  L 306.25 204.13"
/>
<path stroke="#e4aac6" vector-effect="non-scaling-stroke" d="
  M 306.25 204.13
  L 316.47 204.22
  A 0.83 0.82 -80.6 0 0 317.25 203.65
  Q 323.75 183.19 315.80 161.36"
/>
<path stroke="#d4abcb" vector-effect="non-scaling-stroke" d="
  M 315.80 161.36
  Q 312.64 152.81 306.01 144.33
  Q 305.49 143.67 305.08 144.40
  L 285.93 177.88"
/>
<path stroke="#b95692" vector-effect="non-scaling-stroke" d="
  M 315.80 161.36
  L 293.86 186.31"
/>
<path stroke="#cd558f" vector-effect="non-scaling-stroke" d="
  M 293.86 186.31
  L 285.93 177.88"
/>
<path stroke="#dd5489" vector-effect="non-scaling-stroke" d="
  M 306.25 204.13
  Q 300.10 193.78 293.86 186.31"
/>
<path stroke="#ffd5a7" vector-effect="non-scaling-stroke" d="
  M 192.78 176.87
  Q 192.24 182.38 192.46 188.25
  Q 192.64 193.18 193.76 197.33"
/>
<path stroke="#ffe9b9" vector-effect="non-scaling-stroke" d="
  M 193.76 197.33
  Q 196.64 212.57 206.30 224.36
  A 0.70 0.70 0.0 0 0 207.45 224.27
  L 218.14 206.03"
/>
<path stroke="#ffd5a7" vector-effect="non-scaling-stroke" d="
  M 218.14 206.03
  L 239.19 168.66"
/>
<path stroke="#fbbda1" vector-effect="non-scaling-stroke" d="
  M 239.19 168.66
  Q 240.40 167.73 241.19 165.40
  A 0.48 0.47 9.6 0 0 240.74 164.77
  L 195.94 164.76
  A 0.74 0.73 5.8 0 0 195.22 165.34
  L 192.78 176.87"
/>
<path stroke="#fa9349" vector-effect="non-scaling-stroke" d="
  M 239.19 168.66
  L 192.78 176.87"
/>
<path stroke="#ffbf61" vector-effect="non-scaling-stroke" d="
  M 218.14 206.03
  L 193.76 197.33"
/>
<path stroke="#ffe9b9" vector-effect="non-scaling-stroke" d="
  M 220.78 206.85
  L 209.40 226.81
  A 1.13 1.12 37.2 0 0 209.59 228.17
  L 214.28 232.74"
/>
<path stroke="#fbbda1" vector-effect="non-scaling-stroke" d="
  M 214.28 232.74
  Q 228.19 244.44 245.17 247.36"
/>
<path stroke="#f8a9c3" vector-effect="non-scaling-stroke" d="
  M 245.17 247.36
  Q 255.07 249.18 265.44 247.64
  A 0.36 0.36 0.0 0 0 265.70 247.11
  L 243.72 208.33"
/>
<path stroke="#ffd5a7" vector-effect="non-scaling-stroke" d="
  M 243.72 208.33
  L 232.62 188.20
  A 0.59 0.59 0.0 0 0 231.60 188.19
  L 220.78 206.85"
/>
<path stroke="#f87f6b" vector-effect="non-scaling-stroke" d="
  M 243.72 208.33
  Q 242.81 211.13 243.11 215.10"
/>
<path stroke="#fa9349" vector-effect="non-scaling-stroke" d="
  M 243.11 215.10
  Q 242.91 214.93 242.60 215.50"
/>
<path stroke="#ffbf61" vector-effect="non-scaling-stroke" d="
  M 242.60 215.50
  L 220.78 206.85"
/>
<path stroke="#f46764" vector-effect="non-scaling-stroke" d="
  M 245.17 247.36
  L 243.11 215.10"
/>
<path stroke="#fba75b" vector-effect="non-scaling-stroke" d="
  M 242.60 215.50
  L 214.28 232.74"
/>
<path stroke="#f8a9c3" vector-effect="non-scaling-stroke" d="
  M 269.81 247.01
  C 291.33 241.68 307.43 228.16 315.81 207.93
  A 0.54 0.53 11.0 0 0 315.31 207.20
  L 247.26 207.11
  Q 246.27 207.11 246.76 207.97
  L 268.57 246.47
  A 1.12 1.11 -21.2 0 0 269.81 247.01"
/>
</g>
<path fill="#ffffff" d="
  M 0.00 0.00
  L 498.00 0.00
  L 498.00 352.00
  L 0.00 352.00
  L 0.00 0.00
  Z
  M 257.89 68.28
  C 273.33 68.70 289.08 72.41 303.37 79.19
  Q 305.32 80.11 307.53 79.89
  Q 315.20 79.10 321.95 78.66
  Q 325.29 78.44 322.01 77.75
  L 242.27 60.88
  Q 239.67 60.33 242.06 61.47
  Q 248.96 64.76 255.97 67.85
  Q 256.90 68.26 257.89 68.28
  Z
  M 255.42 71.92
  C 263.79 76.01 272.56 79.77 280.62 83.59
  Q 282.57 84.51 285.08 84.29
  Q 292.42 83.62 299.68 83.08
  Q 302.43 82.88 299.93 81.71
  Q 279.09 71.99 255.67 70.93
  Q 253.14 70.81 255.42 71.92
  Z
  M 181.99 84.31
  A 0.50 0.50 0.0 0 0 182.18 83.83
  L 180.54 73.53
  A 0.50 0.50 0.0 0 0 179.68 73.27
  L 161.65 92.91
  A 0.50 0.50 0.0 0 0 161.88 93.73
  L 167.05 95.26
  A 0.50 0.50 0.0 0 0 167.49 95.18
  L 181.99 84.31
  Z
  M 219.39 79.52
  L 211.41 82.37
  L 208.03 83.87
  L 197.70 89.41
  Q 196.89 89.84 197.04 90.75
  L 199.44 105.14
  A 0.29 0.29 0.0 0 1 199.08 105.47
  L 183.06 100.91
  A 1.58 1.56 -57.7 0 0 181.58 101.25
  Q 170.78 110.93 162.99 122.49
  A 1.03 1.02 -59.2 0 0 163.36 123.97
  L 170.86 127.83
  Q 160.84 138.43 150.76 148.77
  Q 149.45 150.12 148.69 152.75
  Q 146.13 161.63 145.15 169.06
  L 139.27 169.05
  A 1.16 1.15 -88.1 0 0 138.12 170.14
  L 137.74 175.90
  Q 137.68 176.87 138.63 176.69
  L 149.72 174.60
  A 1.02 1.01 82.4 0 0 150.54 173.52
  L 150.33 171.14
  Q 150.27 170.44 150.98 170.43
  L 152.73 170.42
  L 155.82 170.20
  Q 156.71 170.14 156.74 171.03
  L 156.87 174.95
  Q 156.90 175.82 156.04 175.97
  L 144.79 177.91
  A 0.93 0.93 0.0 0 0 144.01 178.83
  L 144.07 184.59
  Q 143.78 192.91 145.50 201.78
  L 147.65 212.96
  A 1.30 1.30 0.0 0 0 148.89 214.02
  L 157.82 214.27
  A 1.12 1.11 72.9 0 1 158.68 214.73
  Q 159.31 215.58 160.15 217.07
  Q 166.77 228.77 170.68 239.82
  L 158.86 217.51
  A 1.29 1.28 -13.1 0 0 157.76 216.83
  L 148.44 216.64
  A 0.60 0.59 -6.9 0 0 147.85 217.39
  Q 154.14 240.20 169.30 258.66
  Q 169.66 259.72 170.50 259.67
  Q 170.96 259.64 171.04 259.18
  Q 171.09 258.90 171.24 258.76
  Q 171.62 258.39 171.98 258.79
  Q 178.41 266.00 185.76 271.68
  Q 193.84 278.28 204.53 283.89
  C 206.26 284.79 207.36 285.76 209.33 285.13
  Q 218.32 282.25 226.41 279.87
  A 3.86 3.84 -44.3 0 1 228.68 279.89
  Q 235.22 281.96 242.12 283.83
  C 244.79 284.56 246.45 286.67 247.71 288.95
  Q 248.14 289.71 247.40 289.24
  C 246.60 288.74 245.90 288.29 244.98 288.01
  Q 238.01 285.88 231.07 283.86
  A 3.87 3.83 44.4 0 0 228.88 283.87
  L 211.04 289.31
  Q 210.10 289.60 210.99 290.03
  Q 226.28 297.25 243.77 299.52
  A 1.11 1.11 0.0 0 0 244.61 299.28
  L 248.14 296.41
  Q 248.57 296.06 249.11 296.08
  L 252.74 296.17
  Q 263.58 296.46 274.09 294.64
  Q 275.60 294.37 274.66 295.58
  Q 274.31 296.03 274.04 296.48
  Q 273.02 298.23 274.81 297.28
  Q 277.65 295.77 278.65 297.31
  Q 276.58 298.91 276.46 300.43
  Q 276.42 300.95 276.94 300.84
  L 318.44 291.23
  Q 319.83 290.91 318.58 290.24
  L 310.33 285.80
  A 2.41 2.39 45.3 0 0 308.09 285.78
  Q 297.99 291.05 286.72 294.54
  Q 286.06 294.32 285.16 294.71
  Q 285.13 294.72 285.13 294.70
  Q 285.12 294.68 285.12 294.65
  Q 285.10 294.57 285.17 294.54
  Q 292.72 291.66 299.74 288.39
  Q 301.53 287.56 303.05 286.49
  A 0.55 0.55 0.0 0 0 302.95 285.53
  Q 299.51 284.09 296.42 282.03
  A 1.80 1.77 -39.5 0 0 294.70 281.88
  L 283.71 286.67
  A 0.27 0.27 0.0 0 1 283.34 286.37
  L 283.48 285.65
  A 0.30 0.29 84.5 0 1 283.66 285.43
  L 299.96 278.10
  Q 300.47 277.87 300.94 278.17
  Q 303.91 280.06 307.10 281.67
  Q 309.05 282.65 310.88 281.57
  Q 330.39 270.11 343.17 253.46
  Q 343.78 252.65 344.16 253.59
  L 344.65 254.82
  Q 345.29 256.40 346.25 254.99
  L 351.32 247.50
  A 0.53 0.53 0.0 0 0 350.81 246.67
  C 349.20 246.91 347.70 246.62 346.49 245.46
  Q 343.99 243.07 341.26 240.86
  C 340.02 239.86 339.02 238.03 338.37 236.59
  Q 337.01 233.53 339.70 235.52
  Q 342.13 237.30 344.91 240.01
  Q 346.85 241.89 348.39 242.15
  Q 351.05 242.60 352.47 239.91
  Q 354.11 236.80 355.49 233.83
  L 362.01 218.26
  Q 362.82 217.44 363.00 216.75
  Q 371.89 183.45 360.88 151.00
  A 0.34 0.34 0.0 0 0 360.26 150.95
  L 348.29 173.73
  Q 347.59 172.74 348.22 171.48
  Q 353.33 161.24 358.45 151.01
  C 359.36 149.20 360.79 148.55 359.96 146.17
  Q 358.68 142.50 356.75 138.48
  L 355.85 136.43
  Q 355.62 135.91 355.99 135.48
  C 356.61 134.76 356.73 133.98 356.27 133.12
  Q 354.39 129.61 352.44 126.11
  Q 352.37 125.98 352.37 125.83
  Q 352.38 125.64 352.46 125.47
  L 354.47 122.40
  Q 354.82 121.86 354.43 121.34
  L 349.77 115.20
  A 0.72 0.72 0.0 0 0 348.76 115.07
  Q 347.71 115.89 347.40 117.18
  A 1.38 1.36 -53.6 0 0 347.54 118.16
  L 351.75 125.57
  Q 352.36 125.81 352.06 126.22
  Q 348.19 131.57 344.83 136.76
  A 1.66 1.66 0.0 0 0 344.67 138.24
  C 346.14 142.17 346.29 145.69 344.64 149.74
  A 0.64 0.62 -78.9 0 1 344.08 150.13
  L 343.79 150.15
  Q 343.50 150.16 343.55 149.87
  Q 343.95 147.53 344.21 145.10
  C 344.45 142.80 343.54 140.76 343.01 138.56
  A 1.29 1.28 -35.0 0 1 343.20 137.52
  L 349.88 127.65
  Q 350.14 127.27 350.11 126.80
  Q 350.00 124.94 348.81 123.99
  L 341.09 113.57
  Q 326.31 95.74 306.44 85.72
  C 305.40 85.19 304.52 85.18 303.40 85.26
  Q 295.56 85.83 287.31 86.54
  A 5.05 5.01 -34.7 0 1 284.72 86.08
  Q 272.52 80.37 259.09 74.28
  C 257.56 73.59 255.90 73.37 254.26 73.35
  Q 237.25 73.18 219.39 79.52
  Z
  M 194.59 101.74
  A 0.70 0.70 0.0 0 0 195.47 100.95
  L 192.97 86.77
  A 0.70 0.70 0.0 0 0 191.87 86.32
  L 178.66 95.96
  A 0.70 0.70 0.0 0 0 178.87 97.20
  L 194.59 101.74
  Z
  M 148.58 100.30
  A 0.35 0.35 0.0 0 0 148.47 99.85
  L 136.04 90.97
  A 0.35 0.35 0.0 0 0 135.48 91.23
  L 133.30 128.34
  A 0.35 0.35 0.0 0 0 133.96 128.52
  L 148.58 100.30
  Z
  M 102.08 134.82
  A 0.41 0.41 0.0 0 0 102.47 135.41
  L 114.92 134.81
  A 0.41 0.41 0.0 0 0 115.31 134.33
  L 112.05 116.38
  A 0.41 0.41 0.0 0 0 111.28 116.27
  L 102.08 134.82
  Z
  M 157.41 125.75
  C 152.36 133.60 148.22 142.06 145.12 150.88
  Q 144.42 152.86 145.88 151.35
  L 166.32 130.20
  Q 166.44 130.08 166.31 129.97
  Q 165.04 128.93 157.80 125.63
  A 0.32 0.31 -61.0 0 0 157.41 125.75
  Z
  M 128.37 147.20
  A 0.31 0.31 0.0 0 0 128.44 147.14
  L 135.60 139.53
  A 0.31 0.31 0.0 0 0 135.23 139.05
  L 110.46 152.27
  A 0.31 0.31 0.0 0 0 110.51 152.84
  L 114.94 154.33
  A 0.31 0.31 0.0 0 0 115.19 154.31
  L 128.37 147.20
  Z
  M 364.47 149.06
  C 371.91 169.84 372.20 193.56 366.22 214.82
  C 366.01 215.56 366.11 216.53 366.46 217.20
  Q 371.97 227.50 377.55 238.00
  Q 378.55 239.88 378.34 237.76
  L 368.88 140.02
  Q 368.71 138.24 367.87 139.82
  L 364.71 145.75
  Q 363.86 147.35 364.47 149.06
  Z
  M 90.47 166.99
  Q 82.13 164.49 79.50 164.27
  Q 62.78 162.85 46.39 161.53
  A 0.50 0.50 0.0 0 0 45.94 162.32
  L 53.00 172.56
  A 2.48 2.46 -17.4 0 0 55.05 173.62
  Q 73.33 173.39 92.00 173.25
  Q 94.42 173.23 95.49 173.86
  Q 100.97 181.53 105.70 187.30
  Q 107.25 189.20 106.33 186.92
  L 100.85 173.41
  L 110.00 173.05
  Q 110.21 173.05 110.31 172.87
  Q 110.40 172.73 110.32 172.61
  Q 110.17 172.36 109.89 172.31
  Q 103.18 171.05 98.17 167.94
  L 92.68 154.79
  A 1.03 1.03 0.0 0 0 91.69 154.17
  L 82.74 154.67
  A 0.49 0.49 0.0 0 0 82.37 155.44
  L 90.47 166.99
  Z
  M 129.85 178.33
  A 0.83 0.83 0.0 0 0 130.84 179.30
  L 133.51 178.74
  A 0.83 0.83 0.0 0 0 134.17 178.00
  L 134.77 171.82
  A 0.83 0.83 0.0 0 0 133.87 170.92
  L 131.85 171.10
  A 0.83 0.83 0.0 0 0 131.10 171.77
  L 129.85 178.33
  Z
  M 128.33 190.45
  A 0.70 0.70 0.0 0 0 127.91 189.67
  L 122.16 187.25
  A 0.70 0.70 0.0 0 0 121.21 187.72
  L 116.81 204.77
  A 0.70 0.70 0.0 0 0 117.39 205.64
  L 124.45 206.66
  A 0.70 0.70 0.0 0 0 125.24 206.11
  L 128.33 190.45
  Z
  M 52.26 200.14
  A 0.34 0.34 0.0 0 0 52.40 199.57
  L 44.89 192.16
  A 0.34 0.34 0.0 0 0 44.33 192.31
  L 41.38 202.81
  A 0.34 0.34 0.0 0 0 41.80 203.23
  L 52.26 200.14
  Z
  M 67.74 212.35
  A 0.47 0.47 0.0 0 0 67.61 212.68
  L 67.89 223.11
  A 0.47 0.47 0.0 0 0 68.71 223.41
  L 87.46 201.84
  A 0.47 0.47 0.0 0 0 87.48 201.24
  L 83.36 196.03
  A 0.47 0.47 0.0 0 0 82.65 196.01
  L 67.74 212.35
  Z
  M 162.38 255.29
  C 152.42 243.51 145.32 229.74 141.24 214.80
  A 0.99 0.98 83.2 0 0 140.32 214.07
  Q 135.98 213.97 131.89 213.80
  Q 129.29 213.69 126.49 214.92
  Q 121.27 217.23 116.64 219.00
  A 0.62 0.62 0.0 0 0 116.45 220.03
  L 164.14 263.66
  Q 165.22 264.64 165.03 263.19
  C 164.66 260.36 164.32 257.58 162.38 255.29
  Z
  M 118.82 247.19
  A 0.81 0.81 0.0 0 0 119.70 246.12
  L 114.87 232.39
  A 0.81 0.81 0.0 0 0 113.54 232.08
  L 101.89 243.37
  A 0.81 0.81 0.0 0 0 102.33 244.75
  L 118.82 247.19
  Z
  M 123.55 271.70
  L 153.17 269.88
  Q 153.26 269.87 153.30 269.78
  Q 153.36 269.65 153.37 269.53
  Q 153.39 269.23 153.10 269.19
  L 127.54 265.08
  Q 133.74 254.90 140.11 244.77
  Q 140.30 244.46 140.04 244.27
  Q 139.71 244.04 139.41 244.31
  Q 132.37 250.73 125.47 256.79
  Q 121.62 260.16 118.45 264.52
  Q 112.71 272.42 105.93 280.89
  Q 104.73 282.39 106.65 282.30
  L 115.22 281.86
  Q 117.17 281.76 118.21 280.12
  L 123.55 271.70
  Z
  M 362.79 249.40
  A 0.33 0.33 0.0 0 0 362.56 248.87
  L 354.44 248.21
  A 0.33 0.33 0.0 0 0 354.14 248.35
  L 348.06 257.45
  A 0.33 0.33 0.0 0 0 348.03 257.77
  L 350.91 264.19
  A 0.33 0.33 0.0 0 0 351.48 264.26
  L 362.79 249.40
  Z
  M 179.43 280.03
  A 0.34 0.34 0.0 0 0 179.40 279.36
  L 169.09 278.10
  A 0.34 0.34 0.0 0 0 168.98 278.10
  L 154.67 281.06
  A 0.34 0.34 0.0 0 0 154.45 281.22
  L 152.06 285.14
  A 0.34 0.34 0.0 0 0 152.42 285.65
  L 179.43 280.03
  Z
  M 176.65 291.79
  L 208.33 307.66
  A 0.94 0.93 38.9 0 0 209.32 307.56
  L 221.84 297.61
  Q 222.65 296.97 221.63 296.83
  Q 204.95 294.53 190.18 287.75
  Q 188.55 287.00 186.82 287.56
  Q 181.72 289.21 176.77 290.60
  Q 175.17 291.05 176.65 291.79
  Z"
/>
<path fill="#c8558c" d="
  M 303.37 79.19
  C 289.08 72.41 273.33 68.70 257.89 68.28
  Q 256.90 68.26 255.97 67.85
  Q 248.96 64.76 242.06 61.47
  Q 239.67 60.33 242.27 60.88
  L 322.01 77.75
  Q 325.29 78.44 321.95 78.66
  Q 315.20 79.10 307.53 79.89
  Q 305.32 80.11 303.37 79.19
  Z"
/>
<path fill="#8758a0" d="
  M 280.62 83.59
  C 272.56 79.77 263.79 76.01 255.42 71.92
  Q 253.14 70.81 255.67 70.93
  Q 279.09 71.99 299.93 81.71
  Q 302.43 82.88 299.68 83.08
  Q 292.42 83.62 285.08 84.29
  Q 282.57 84.51 280.62 83.59
  Z"
/>
<path fill="#e55169" d="
  M 181.99 84.31
  L 167.49 95.18
  A 0.50 0.50 0.0 0 1 167.05 95.26
  L 161.88 93.73
  A 0.50 0.50 0.0 0 1 161.65 92.91
  L 179.68 73.27
  A 0.50 0.50 0.0 0 1 180.54 73.53
  L 182.18 83.83
  A 0.50 0.50 0.0 0 1 181.99 84.31
  Z"
/>
<path fill="#6b61a8" d="
  M 341.09 113.57
  Q 333.26 112.30 326.20 110.02
  Q 325.70 109.86 325.34 109.51
  Q 324.98 109.17 324.50 109.15
  Q 320.46 108.95 317.07 107.03
  Q 316.63 106.77 316.12 106.83
  L 313.21 107.17
  A 1.18 1.17 67.5 0 1 312.14 106.72
  Q 310.30 104.39 307.86 104.64
  Q 307.26 104.70 306.83 104.28
  Q 306.34 103.80 305.70 104.03
  Q 304.99 104.30 304.29 104.00
  Q 299.39 101.93 295.22 100.83
  Q 287.37 98.76 279.34 96.72
  C 276.03 95.88 272.84 94.69 269.52 93.84
  Q 265.79 92.88 262.05 91.79
  Q 241.45 85.78 219.39 79.52
  Q 237.25 73.18 254.26 73.35
  C 255.90 73.37 257.56 73.59 259.09 74.28
  Q 272.52 80.37 284.72 86.08
  A 5.05 5.01 -34.7 0 0 287.31 86.54
  Q 295.56 85.83 303.40 85.26
  C 304.52 85.18 305.40 85.19 306.44 85.72
  Q 326.31 95.74 341.09 113.57
  Z"
/>
<path fill="#8758a0" d="
  M 219.39 79.52
  Q 241.45 85.78 262.05 91.79
  Q 265.79 92.88 269.52 93.84
  C 272.84 94.69 276.03 95.88 279.34 96.72
  Q 287.37 98.76 295.22 100.83
  Q 299.39 101.93 304.29 104.00
  Q 304.99 104.30 305.70 104.03
  Q 306.34 103.80 306.83 104.28
  Q 307.26 104.70 307.86 104.64
  Q 310.30 104.39 312.14 106.72
  A 1.18 1.17 67.5 0 0 313.21 107.17
  L 316.12 106.83
  Q 316.63 106.77 317.07 107.03
  Q 320.46 108.95 324.50 109.15
  Q 324.98 109.17 325.34 109.51
  Q 325.70 109.86 326.20 110.02
  Q 333.26 112.30 341.09 113.57
  L 348.81 123.99
  L 316.78 126.04
  Q 310.73 120.46 308.95 119.06
  Q 274.86 92.38 232.43 103.29
  L 211.41 82.37
  L 219.39 79.52
  Z"
/>
<path fill="#c8558c" d="
  M 211.41 82.37
  L 232.43 103.29
  L 217.89 109.08
  L 208.03 83.87
  L 211.41 82.37
  Z"
/>
<path fill="#e55169" d="
  M 208.03 83.87
  L 217.89 109.08
  Q 198.29 119.37 186.67 136.16
  L 170.86 127.83
  L 163.36 123.97
  A 1.03 1.02 -59.2 0 1 162.99 122.49
  Q 170.78 110.93 181.58 101.25
  A 1.58 1.56 -57.7 0 1 183.06 100.91
  L 199.08 105.47
  A 0.29 0.29 0.0 0 0 199.44 105.14
  L 197.04 90.75
  Q 196.89 89.84 197.70 89.41
  L 208.03 83.87
  Z"
/>
<path fill="#f67b42" d="
  M 194.59 101.74
  L 178.87 97.20
  A 0.70 0.70 0.0 0 1 178.66 95.96
  L 191.87 86.32
  A 0.70 0.70 0.0 0 1 192.97 86.77
  L 195.47 100.95
  A 0.70 0.70 0.0 0 1 194.59 101.74
  Z"
/>
<path fill="#c8558c" d="
  M 148.58 100.30
  L 133.96 128.52
  A 0.35 0.35 0.0 0 1 133.30 128.34
  L 135.48 91.23
  A 0.35 0.35 0.0 0 1 136.04 90.97
  L 148.47 99.85
  A 0.35 0.35 0.0 0 1 148.58 100.30
  Z"
/>
<path fill="#ffffff" d="
  M 316.78 126.04
  Q 322.09 132.27 324.16 135.09
  Q 332.74 146.81 337.36 162.87
  Q 343.06 185.42 336.58 208.88
  Q 325.53 242.69 295.40 258.90
  Q 274.54 270.12 249.66 268.54
  Q 228.13 266.68 210.33 255.58
  C 193.31 243.98 180.91 227.99 175.04 208.58
  Q 170.58 194.34 171.62 178.55
  Q 173.18 156.00 186.67 136.16
  Q 198.29 119.37 217.89 109.08
  L 232.43 103.29
  Q 274.86 92.38 308.95 119.06
  Q 310.73 120.46 316.78 126.04
  Z
  M 260.07 145.62
  L 268.24 159.58
  L 280.13 180.69
  A 0.56 0.56 0.0 0 0 281.11 180.69
  L 283.59 176.18
  L 301.45 144.88
  Q 302.46 143.80 303.16 141.72
  Q 303.34 141.20 302.96 140.80
  C 288.36 125.29 268.44 118.65 247.01 121.19
  A 0.59 0.58 71.7 0 0 246.58 122.06
  L 260.07 145.62
  Z
  M 235.05 124.21
  L 226.47 127.93
  Q 213.19 135.00 204.37 147.15
  Q 200.15 152.80 196.74 161.03
  A 0.65 0.65 0.0 0 0 197.34 161.93
  L 228.81 161.84
  L 238.72 161.82
  L 246.25 161.82
  L 265.35 161.86
  A 0.42 0.42 0.0 0 0 265.72 161.24
  L 256.92 145.75
  L 243.46 122.38
  A 0.78 0.77 -22.7 0 0 242.57 122.02
  L 235.05 124.21
  Z
  M 285.93 177.88
  L 271.31 203.48
  Q 270.89 204.23 271.74 204.22
  L 306.25 204.13
  L 316.47 204.22
  A 0.83 0.82 -80.6 0 0 317.25 203.65
  Q 323.75 183.19 315.80 161.36
  Q 312.64 152.81 306.01 144.33
  Q 305.49 143.67 305.08 144.40
  L 285.93 177.88
  Z
  M 192.78 176.87
  Q 192.24 182.38 192.46 188.25
  Q 192.64 193.18 193.76 197.33
  Q 196.64 212.57 206.30 224.36
  A 0.70 0.70 0.0 0 0 207.45 224.27
  L 218.14 206.03
  L 239.19 168.66
  Q 240.40 167.73 241.19 165.40
  A 0.48 0.47 9.6 0 0 240.74 164.77
  L 195.94 164.76
  A 0.74 0.73 5.8 0 0 195.22 165.34
  L 192.78 176.87
  Z
  M 220.78 206.85
  L 209.40 226.81
  A 1.13 1.12 37.2 0 0 209.59 228.17
  L 214.28 232.74
  Q 228.19 244.44 245.17 247.36
  Q 255.07 249.18 265.44 247.64
  A 0.36 0.36 0.0 0 0 265.70 247.11
  L 243.72 208.33
  L 232.62 188.20
  A 0.59 0.59 0.0 0 0 231.60 188.19
  L 220.78 206.85
  Z
  M 269.81 247.01
  C 291.33 241.68 307.43 228.16 315.81 207.93
  A 0.54 0.53 11.0 0 0 315.31 207.20
  L 247.26 207.11
  Q 246.27 207.11 246.76 207.97
  L 268.57 246.47
  A 1.12 1.11 -21.2 0 0 269.81 247.01
  Z"
/>
<path fill="#8758a0" d="
  M 352.46 125.47
  Q 352.12 125.43 351.75 125.57
  L 347.54 118.16
  A 1.38 1.36 -53.6 0 1 347.40 117.18
  Q 347.71 115.89 348.76 115.07
  A 0.72 0.72 0.0 0 1 349.77 115.20
  L 354.43 121.34
  Q 354.82 121.86 354.47 122.40
  L 352.46 125.47
  Z"
/>
<path fill="#e55169" d="
  M 102.08 134.82
  L 111.28 116.27
  A 0.41 0.41 0.0 0 1 112.05 116.38
  L 115.31 134.33
  A 0.41 0.41 0.0 0 1 114.92 134.81
  L 102.47 135.41
  A 0.41 0.41 0.0 0 1 102.08 134.82
  Z"
/>
<path fill="#8758a0" d="
  M 301.45 144.88
  L 260.07 145.62
  L 246.58 122.06
  A 0.59 0.58 71.7 0 1 247.01 121.19
  C 268.44 118.65 288.36 125.29 302.96 140.80
  Q 303.34 141.20 303.16 141.72
  Q 302.46 143.80 301.45 144.88
  Z"
/>
<path fill="#8758a0" d="
  M 256.92 145.75
  Q 256.83 146.28 256.48 146.51
  Q 256.27 146.65 255.98 146.56
  Q 255.67 146.47 255.53 146.27
  L 235.05 124.21
  L 242.57 122.02
  A 0.78 0.77 -22.7 0 1 243.46 122.38
  L 256.92 145.75
  Z"
/>
<path fill="#a95797" d="
  M 348.81 123.99
  Q 350.00 124.94 350.11 126.80
  Q 350.14 127.27 349.88 127.65
  L 343.20 137.52
  A 1.29 1.28 -35.0 0 0 343.01 138.56
  C 343.54 140.76 344.45 142.80 344.21 145.10
  Q 343.95 147.53 343.55 149.87
  Q 343.50 150.16 343.79 150.15
  L 344.08 150.13
  A 0.64 0.62 -78.9 0 0 344.64 149.74
  C 346.29 145.69 346.14 142.17 344.67 138.24
  A 1.66 1.66 0.0 0 1 344.83 136.76
  Q 348.19 131.57 352.06 126.22
  Q 352.36 125.81 351.75 125.57
  Q 352.12 125.43 352.46 125.47
  Q 352.38 125.64 352.37 125.83
  Q 352.37 125.98 352.44 126.11
  Q 354.39 129.61 356.27 133.12
  C 356.73 133.98 356.61 134.76 355.99 135.48
  Q 355.62 135.91 355.85 136.43
  L 356.75 138.48
  L 337.36 162.87
  Q 332.74 146.81 324.16 135.09
  Q 322.09 132.27 316.78 126.04
  L 348.81 123.99
  Z"
/>
<path fill="#c8558c" d="
  M 235.05 124.21
  L 255.53 146.27
  Q 250.04 153.38 246.25 161.82
  L 238.72 161.82
  Q 233.38 144.33 226.47 127.93
  L 235.05 124.21
  Z"
/>
<path fill="#f67b42" d="
  M 145.12 150.88
  C 148.22 142.06 152.36 133.60 157.41 125.75
  A 0.32 0.31 -61.0 0 1 157.80 125.63
  Q 165.04 128.93 166.31 129.97
  Q 166.44 130.08 166.32 130.20
  L 145.88 151.35
  Q 144.42 152.86 145.12 150.88
  Z"
/>
<path fill="#f67b42" d="
  M 170.86 127.83
  L 186.67 136.16
  Q 173.18 156.00 171.62 178.55
  L 144.07 184.59
  L 144.01 178.83
  A 0.93 0.93 0.0 0 1 144.79 177.91
  L 156.04 175.97
  Q 156.90 175.82 156.87 174.95
  L 156.74 171.03
  Q 156.71 170.14 155.82 170.20
  L 152.73 170.42
  L 151.08 170.27
  Q 150.59 170.22 150.26 169.85
  Q 148.95 168.36 145.15 169.06
  Q 146.13 161.63 148.69 152.75
  Q 149.45 150.12 150.76 148.77
  Q 160.84 138.43 170.86 127.83
  Z"
/>
<path fill="#e55169" d="
  M 226.47 127.93
  Q 233.38 144.33 238.72 161.82
  L 228.81 161.84
  Q 228.01 160.70 226.59 159.91
  Q 217.91 155.12 204.37 147.15
  Q 213.19 135.00 226.47 127.93
  Z"
/>
<path fill="#c8558c" d="
  M 356.75 138.48
  Q 358.68 142.50 359.96 146.17
  C 360.79 148.55 359.36 149.20 358.45 151.01
  Q 353.33 161.24 348.22 171.48
  Q 347.59 172.74 348.29 173.73
  Q 347.70 175.19 348.21 178.26
  Q 349.72 187.22 351.36 196.20
  Q 351.97 199.49 353.55 202.42
  Q 356.46 207.83 359.38 213.21
  Q 360.67 215.59 362.01 218.26
  L 355.49 233.83
  Q 353.41 229.39 351.73 227.85
  C 348.23 224.63 345.07 219.62 343.05 217.10
  Q 339.85 213.12 336.58 208.88
  Q 343.06 185.42 337.36 162.87
  L 356.75 138.48
  Z"
/>
<path fill="#e55169" d="
  M 128.37 147.20
  L 115.19 154.31
  A 0.31 0.31 0.0 0 1 114.94 154.33
  L 110.51 152.84
  A 0.31 0.31 0.0 0 1 110.46 152.27
  L 135.23 139.05
  A 0.31 0.31 0.0 0 1 135.60 139.53
  L 128.44 147.14
  A 0.31 0.31 0.0 0 1 128.37 147.20
  Z"
/>
<path fill="#6b61a8" d="
  M 366.22 214.82
  C 372.20 193.56 371.91 169.84 364.47 149.06
  Q 363.86 147.35 364.71 145.75
  L 367.87 139.82
  Q 368.71 138.24 368.88 140.02
  L 378.34 237.76
  Q 378.55 239.88 377.55 238.00
  Q 371.97 227.50 366.46 217.20
  C 366.11 216.53 366.01 215.56 366.22 214.82
  Z"
/>
<path fill="#a95797" d="
  M 315.80 161.36
  L 293.86 186.31
  L 285.93 177.88
  L 305.08 144.40
  Q 305.49 143.67 306.01 144.33
  Q 312.64 152.81 315.80 161.36
  Z"
/>
<path fill="#a95797" d="
  M 301.45 144.88
  L 283.59 176.18
  L 268.24 159.58
  L 260.07 145.62
  L 301.45 144.88
  Z"
/>
<path fill="#f15386" d="
  M 256.92 145.75
  L 265.72 161.24
  A 0.42 0.42 0.0 0 1 265.35 161.86
  L 246.25 161.82
  Q 250.04 153.38 255.53 146.27
  Q 255.67 146.47 255.98 146.56
  Q 256.27 146.65 256.48 146.51
  Q 256.83 146.28 256.92 145.75
  Z"
/>
<path fill="#f67b42" d="
  M 204.37 147.15
  Q 217.91 155.12 226.59 159.91
  Q 228.01 160.70 228.81 161.84
  L 197.34 161.93
  A 0.65 0.65 0.0 0 1 196.74 161.03
  Q 200.15 152.80 204.37 147.15
  Z"
/>
<path fill="#8758a0" d="
  M 362.01 218.26
  Q 360.67 215.59 359.38 213.21
  Q 356.46 207.83 353.55 202.42
  Q 351.97 199.49 351.36 196.20
  Q 349.72 187.22 348.21 178.26
  Q 347.70 175.19 348.29 173.73
  L 360.26 150.95
  A 0.34 0.34 0.0 0 1 360.88 151.00
  Q 371.89 183.45 363.00 216.75
  Q 362.82 217.44 362.01 218.26
  Z"
/>
<path fill="#feab4f" d="
  M 98.17 167.94
  Q 95.11 169.09 90.47 166.99
  L 82.37 155.44
  A 0.49 0.49 0.0 0 1 82.74 154.67
  L 91.69 154.17
  A 1.03 1.03 0.0 0 1 92.68 154.79
  L 98.17 167.94
  Z"
/>
<path fill="#f15386" d="
  M 283.59 176.18
  L 281.11 180.69
  A 0.56 0.56 0.0 0 1 280.13 180.69
  L 268.24 159.58
  L 283.59 176.18
  Z"
/>
<path fill="#ffd273" d="
  M 90.47 166.99
  Q 95.11 169.09 98.17 167.94
  Q 103.18 171.05 109.89 172.31
  Q 110.17 172.36 110.32 172.61
  Q 110.40 172.73 110.31 172.87
  Q 110.21 173.05 110.00 173.05
  L 100.85 173.41
  Q 97.11 172.12 95.49 173.86
  Q 94.42 173.23 92.00 173.25
  Q 73.33 173.39 55.05 173.62
  A 2.48 2.46 -17.4 0 1 53.00 172.56
  L 45.94 162.32
  A 0.50 0.50 0.0 0 1 46.39 161.53
  Q 62.78 162.85 79.50 164.27
  Q 82.13 164.49 90.47 166.99
  Z"
/>
<path fill="#c8558c" d="
  M 315.80 161.36
  Q 323.75 183.19 317.25 203.65
  A 0.83 0.82 -80.6 0 1 316.47 204.22
  L 306.25 204.13
  Q 300.10 193.78 293.86 186.31
  L 315.80 161.36
  Z"
/>
<path fill="#f67b42" d="
  M 239.19 168.66
  L 192.78 176.87
  L 195.22 165.34
  A 0.74 0.73 5.8 0 1 195.94 164.76
  L 240.74 164.77
  A 0.48 0.47 9.6 0 1 241.19 165.40
  Q 240.40 167.73 239.19 168.66
  Z"
/>
<path fill="#feab4f" d="
  M 239.19 168.66
  L 218.14 206.03
  L 193.76 197.33
  Q 192.64 193.18 192.46 188.25
  Q 192.24 182.38 192.78 176.87
  L 239.19 168.66
  Z"
/>
<path fill="#feab4f" d="
  M 145.15 169.06
  Q 148.95 168.36 150.26 169.85
  Q 150.59 170.22 151.08 170.27
  L 152.73 170.42
  L 150.98 170.43
  Q 150.27 170.44 150.33 171.14
  L 150.54 173.52
  A 1.02 1.01 82.4 0 1 149.72 174.60
  L 138.63 176.69
  Q 137.68 176.87 137.74 175.90
  L 138.12 170.14
  A 1.16 1.15 -88.1 0 1 139.27 169.05
  L 145.15 169.06
  Z"
/>
<path fill="#f67b42" d="
  M 129.85 178.33
  L 131.10 171.77
  A 0.83 0.83 0.0 0 1 131.85 171.10
  L 133.87 170.92
  A 0.83 0.83 0.0 0 1 134.77 171.82
  L 134.17 178.00
  A 0.83 0.83 0.0 0 1 133.51 178.74
  L 130.84 179.30
  A 0.83 0.83 0.0 0 1 129.85 178.33
  Z"
/>
<path fill="#feab4f" d="
  M 100.85 173.41
  L 106.33 186.92
  Q 107.25 189.20 105.70 187.30
  Q 100.97 181.53 95.49 173.86
  Q 97.11 172.12 100.85 173.41
  Z"
/>
<path fill="#f15386" d="
  M 285.93 177.88
  L 293.86 186.31
  Q 300.10 193.78 306.25 204.13
  L 271.74 204.22
  Q 270.89 204.23 271.31 203.48
  L 285.93 177.88
  Z"
/>
<path fill="#feab4f" d="
  M 171.62 178.55
  Q 170.58 194.34 175.04 208.58
  Q 175.19 209.94 173.76 209.47
  Q 161.15 205.33 148.48 201.32
  Q 146.68 200.76 145.50 201.78
  Q 143.78 192.91 144.07 184.59
  L 171.62 178.55
  Z"
/>
<path fill="#f67b42" d="
  M 128.33 190.45
  L 125.24 206.11
  A 0.70 0.70 0.0 0 1 124.45 206.66
  L 117.39 205.64
  A 0.70 0.70 0.0 0 1 116.81 204.77
  L 121.21 187.72
  A 0.70 0.70 0.0 0 1 122.16 187.25
  L 127.91 189.67
  A 0.70 0.70 0.0 0 1 128.33 190.45
  Z"
/>
<path fill="#feab4f" d="
  M 243.72 208.33
  Q 242.81 211.13 243.11 215.10
  Q 242.91 214.93 242.60 215.50
  L 220.78 206.85
  L 231.60 188.19
  A 0.59 0.59 0.0 0 1 232.62 188.20
  L 243.72 208.33
  Z"
/>
<path fill="#e55169" d="
  M 52.26 200.14
  L 41.80 203.23
  A 0.34 0.34 0.0 0 1 41.38 202.81
  L 44.33 192.31
  A 0.34 0.34 0.0 0 1 44.89 192.16
  L 52.40 199.57
  A 0.34 0.34 0.0 0 1 52.26 200.14
  Z"
/>
<path fill="#feab4f" d="
  M 67.74 212.35
  L 82.65 196.01
  A 0.47 0.47 0.0 0 1 83.36 196.03
  L 87.48 201.24
  A 0.47 0.47 0.0 0 1 87.46 201.84
  L 68.71 223.41
  A 0.47 0.47 0.0 0 1 67.89 223.11
  L 67.61 212.68
  A 0.47 0.47 0.0 0 1 67.74 212.35
  Z"
/>
<path fill="#ffd273" d="
  M 193.76 197.33
  L 218.14 206.03
  L 207.45 224.27
  A 0.70 0.70 0.0 0 1 206.30 224.36
  Q 196.64 212.57 193.76 197.33
  Z"
/>
<path fill="#ffd273" d="
  M 175.04 208.58
  C 180.91 227.99 193.31 243.98 210.33 255.58
  L 185.76 271.68
  Q 178.41 266.00 171.98 258.79
  Q 171.62 258.39 171.24 258.76
  Q 171.09 258.90 171.04 259.18
  Q 170.96 259.64 170.50 259.67
  Q 169.66 259.72 169.30 258.66
  Q 170.88 259.08 170.36 256.39
  Q 170.09 255.01 170.12 254.08
  Q 170.35 247.18 170.68 239.82
  Q 166.77 228.77 160.15 217.07
  Q 159.31 215.58 158.68 214.73
  A 1.12 1.11 72.9 0 0 157.82 214.27
  L 148.89 214.02
  A 1.30 1.30 0.0 0 1 147.65 212.96
  L 145.50 201.78
  Q 146.68 200.76 148.48 201.32
  Q 161.15 205.33 173.76 209.47
  Q 175.19 209.94 175.04 208.58
  Z"
/>
<path fill="#ffd273" d="
  M 220.78 206.85
  L 242.60 215.50
  L 214.28 232.74
  L 209.59 228.17
  A 1.13 1.12 37.2 0 1 209.40 226.81
  L 220.78 206.85
  Z"
/>
<path fill="#f15386" d="
  M 315.81 207.93
  C 307.43 228.16 291.33 241.68 269.81 247.01
  A 1.12 1.11 -21.2 0 1 268.57 246.47
  L 246.76 207.97
  Q 246.27 207.11 247.26 207.11
  L 315.31 207.20
  A 0.54 0.53 11.0 0 1 315.81 207.93
  Z"
/>
<path fill="#f15386" d="
  M 243.72 208.33
  L 265.70 247.11
  A 0.36 0.36 0.0 0 1 265.44 247.64
  Q 255.07 249.18 245.17 247.36
  L 243.11 215.10
  Q 242.81 211.13 243.72 208.33
  Z"
/>
<path fill="#f15386" d="
  M 336.58 208.88
  Q 339.85 213.12 343.05 217.10
  C 345.07 219.62 348.23 224.63 351.73 227.85
  Q 353.41 229.39 355.49 233.83
  Q 354.11 236.80 352.47 239.91
  Q 351.05 242.60 348.39 242.15
  Q 346.85 241.89 344.91 240.01
  Q 342.13 237.30 339.70 235.52
  Q 337.01 233.53 338.37 236.59
  C 339.02 238.03 340.02 239.86 341.26 240.86
  Q 343.99 243.07 346.49 245.46
  C 347.70 246.62 349.20 246.91 350.81 246.67
  A 0.53 0.53 0.0 0 1 351.32 247.50
  L 346.25 254.99
  Q 345.29 256.40 344.65 254.82
  L 344.16 253.59
  Q 343.78 252.65 343.17 253.46
  Q 330.39 270.11 310.88 281.57
  Q 309.05 282.65 307.10 281.67
  Q 303.91 280.06 300.94 278.17
  Q 300.47 277.87 299.96 278.10
  L 283.66 285.43
  A 0.30 0.29 84.5 0 0 283.48 285.65
  L 283.34 286.37
  A 0.27 0.27 0.0 0 0 283.71 286.67
  L 294.70 281.88
  A 1.80 1.77 -39.5 0 1 296.42 282.03
  Q 299.51 284.09 302.95 285.53
  A 0.55 0.55 0.0 0 1 303.05 286.49
  Q 301.53 287.56 299.74 288.39
  Q 292.72 291.66 285.17 294.54
  Q 285.10 294.57 285.12 294.65
  Q 285.12 294.68 285.13 294.70
  Q 285.13 294.72 285.16 294.71
  Q 286.06 294.32 286.72 294.54
  L 278.65 297.31
  Q 277.65 295.77 274.81 297.28
  Q 273.02 298.23 274.04 296.48
  Q 274.31 296.03 274.66 295.58
  Q 275.60 294.37 274.09 294.64
  Q 263.58 296.46 252.74 296.17
  L 249.66 268.54
  Q 274.54 270.12 295.40 258.90
  Q 325.53 242.69 336.58 208.88
  Z"
/>
<path fill="#f67b42" d="
  M 141.24 214.80
  C 145.32 229.74 152.42 243.51 162.38 255.29
  C 164.32 257.58 164.66 260.36 165.03 263.19
  Q 165.22 264.64 164.14 263.66
  L 116.45 220.03
  A 0.62 0.62 0.0 0 1 116.64 219.00
  Q 121.27 217.23 126.49 214.92
  Q 129.29 213.69 131.89 213.80
  Q 135.98 213.97 140.32 214.07
  A 0.99 0.98 83.2 0 1 141.24 214.80
  Z"
/>
<path fill="#f67b42" d="
  M 243.11 215.10
  L 245.17 247.36
  Q 228.19 244.44 214.28 232.74
  L 242.60 215.50
  Q 242.91 214.93 243.11 215.10
  Z"
/>
<path fill="#feab4f" d="
  M 170.68 239.82
  Q 170.35 247.18 170.12 254.08
  Q 170.09 255.01 170.36 256.39
  Q 170.88 259.08 169.30 258.66
  Q 154.14 240.20 147.85 217.39
  A 0.60 0.59 -6.9 0 1 148.44 216.64
  L 157.76 216.83
  A 1.29 1.28 -13.1 0 1 158.86 217.51
  L 170.68 239.82
  Z"
/>
<path fill="#f67b42" d="
  M 118.82 247.19
  L 102.33 244.75
  A 0.81 0.81 0.0 0 1 101.89 243.37
  L 113.54 232.08
  A 0.81 0.81 0.0 0 1 114.87 232.39
  L 119.70 246.12
  A 0.81 0.81 0.0 0 1 118.82 247.19
  Z"
/>
<path fill="#ffd273" d="
  M 127.54 265.08
  Q 124.94 268.01 123.55 271.70
  L 118.21 280.12
  Q 117.17 281.76 115.22 281.86
  L 106.65 282.30
  Q 104.73 282.39 105.93 280.89
  Q 112.71 272.42 118.45 264.52
  Q 121.62 260.16 125.47 256.79
  Q 132.37 250.73 139.41 244.31
  Q 139.71 244.04 140.04 244.27
  Q 140.30 244.46 140.11 244.77
  Q 133.74 254.90 127.54 265.08
  Z"
/>
<path fill="#f15386" d="
  M 362.79 249.40
  L 351.48 264.26
  A 0.33 0.33 0.0 0 1 350.91 264.19
  L 348.03 257.77
  A 0.33 0.33 0.0 0 1 348.06 257.45
  L 354.14 248.35
  A 0.33 0.33 0.0 0 1 354.44 248.21
  L 362.56 248.87
  A 0.33 0.33 0.0 0 1 362.79 249.40
  Z"
/>
<path fill="#f67b42" d="
  M 210.33 255.58
  Q 228.13 266.68 249.66 268.54
  L 252.74 296.17
  L 249.11 296.08
  Q 248.57 296.06 248.14 296.41
  L 244.61 299.28
  A 1.11 1.11 0.0 0 1 243.77 299.52
  Q 226.28 297.25 210.99 290.03
  Q 210.10 289.60 211.04 289.31
  L 228.88 283.87
  A 3.87 3.83 44.4 0 1 231.07 283.86
  Q 238.01 285.88 244.98 288.01
  C 245.90 288.29 246.60 288.74 247.40 289.24
  Q 248.14 289.71 247.71 288.95
  C 246.45 286.67 244.79 284.56 242.12 283.83
  Q 235.22 281.96 228.68 279.89
  A 3.86 3.84 -44.3 0 0 226.41 279.87
  Q 218.32 282.25 209.33 285.13
  C 207.36 285.76 206.26 284.79 204.53 283.89
  Q 193.84 278.28 185.76 271.68
  L 210.33 255.58
  Z"
/>
<path fill="#feab4f" d="
  M 127.54 265.08
  L 153.10 269.19
  Q 153.39 269.23 153.37 269.53
  Q 153.36 269.65 153.30 269.78
  Q 153.26 269.87 153.17 269.88
  L 123.55 271.70
  Q 124.94 268.01 127.54 265.08
  Z"
/>
<path fill="#e55169" d="
  M 179.43 280.03
  L 152.42 285.65
  A 0.34 0.34 0.0 0 1 152.06 285.14
  L 154.45 281.22
  A 0.34 0.34 0.0 0 1 154.67 281.06
  L 168.98 278.10
  A 0.34 0.34 0.0 0 1 169.09 278.10
  L 179.40 279.36
  A 0.34 0.34 0.0 0 1 179.43 280.03
  Z"
/>
<path fill="#e55169" d="
  M 278.65 297.31
  L 286.72 294.54
  Q 297.99 291.05 308.09 285.78
  A 2.41 2.39 45.3 0 1 310.33 285.80
  L 318.58 290.24
  Q 319.83 290.91 318.44 291.23
  L 276.94 300.84
  Q 276.42 300.95 276.46 300.43
  Q 276.58 298.91 278.65 297.31
  Z"
/>
<path fill="#f67b42" d="
  M 208.33 307.66
  L 176.65 291.79
  Q 175.17 291.05 176.77 290.60
  Q 181.72 289.21 186.82 287.56
  Q 188.55 287.00 190.18 287.75
  Q 204.95 294.53 221.63 296.83
  Q 222.65 296.97 221.84 297.61
  L 209.32 307.56
  A 0.94 0.93 38.9 0 1 208.33 307.66
  Z"
/>
</svg>
